<svg width="55" height="11" viewBox="0 0 55 11" fill="none" xmlns="http://www.w3.org/2000/svg">
<path d="M0.491421 5.73509C0.491421 4.78309 0.706088 3.92909 1.13542 3.17309C1.56475 2.40776 2.14809 1.81043 2.88542 1.38109C3.63209 0.95176 4.45809 0.737093 5.36342 0.737093C6.42742 0.737093 7.35609 0.99376 8.14942 1.50709C8.94276 2.02043 9.52142 2.74843 9.88542 3.69109H8.35942C8.08876 3.12176 7.69676 2.68309 7.18342 2.37509C6.67942 2.05776 6.07276 1.89909 5.36342 1.89909C4.68209 1.89909 4.07076 2.05776 3.52942 2.37509C2.98809 2.68309 2.56342 3.13109 2.25542 3.71909C1.94742 4.29776 1.79342 4.96976 1.79342 5.73509C1.79342 6.50043 1.94742 7.17243 2.25542 7.75109C2.56342 8.32976 2.98809 8.77776 3.52942 9.09509C4.07076 9.40309 4.68209 9.55709 5.36342 9.55709C6.07276 9.55709 6.67942 9.40309 7.18342 9.09509C7.69676 8.78709 8.08876 8.34843 8.35942 7.77909H9.88542C9.52142 8.71243 8.94276 9.43576 8.14942 9.94909C7.35609 10.4531 6.42742 10.7051 5.36342 10.7051C4.45809 10.7051 3.63209 10.4951 2.88542 10.0751C2.14809 9.64576 1.56475 9.05309 1.13542 8.29709C0.706088 7.54109 0.491421 6.68709 0.491421 5.73509ZM17.2059 8.45109H12.9499L12.1659 10.6211H10.8219L14.3499 0.919093H15.8199L19.3339 10.6211H17.9899L17.2059 8.45109ZM16.8559 7.45709L15.0779 2.48709L13.2999 7.45709H16.8559ZM23.6215 10.7191C22.9775 10.7191 22.3988 10.6071 21.8855 10.3831C21.3815 10.1498 20.9848 9.83243 20.6955 9.43109C20.4061 9.02043 20.2568 8.54909 20.2475 8.01709H21.6055C21.6521 8.48376 21.8435 8.88043 22.1795 9.20709C22.5155 9.52443 22.9961 9.68309 23.6215 9.68309C24.2188 9.68309 24.6948 9.52909 25.0495 9.22109C25.4041 8.90376 25.5815 8.50243 25.5815 8.01709C25.5815 7.64376 25.4788 7.34043 25.2735 7.10709C25.0681 6.87376 24.8115 6.69643 24.5035 6.57509C24.1955 6.45376 23.7801 6.32309 23.2575 6.18309C22.6135 6.01509 22.0955 5.84709 21.7035 5.67909C21.3208 5.51109 20.9895 5.24976 20.7095 4.89509C20.4388 4.53109 20.3035 4.04576 20.3035 3.43909C20.3035 2.90709 20.4388 2.43576 20.7095 2.02509C20.9801 1.61443 21.3581 1.29709 21.8435 1.07309C22.3381 0.849093 22.9028 0.737093 23.5375 0.737093C24.4521 0.737093 25.1988 0.96576 25.7775 1.42309C26.3655 1.88043 26.6968 2.48709 26.7715 3.24309H25.3715C25.3248 2.84176 25.1288 2.50109 24.7835 2.22109C24.4475 1.93176 23.9901 1.78709 23.4115 1.78709C22.8795 1.78709 22.4455 1.92709 22.1095 2.20709C21.7735 2.48709 21.6055 2.88376 21.6055 3.39709C21.6055 3.75176 21.7035 4.04109 21.8995 4.26509C22.1048 4.48909 22.3521 4.66176 22.6415 4.78309C22.9401 4.89509 23.3555 5.02576 23.8875 5.17509C24.5315 5.35243 25.0495 5.52976 25.4415 5.70709C25.8335 5.87509 26.1695 6.14109 26.4495 6.50509C26.7295 6.85976 26.8695 7.34509 26.8695 7.96109C26.8695 8.43709 26.7435 8.88509 26.4915 9.30509C26.2395 9.72509 25.8661 10.0658 25.3715 10.3271C24.8768 10.5884 24.2935 10.7191 23.6215 10.7191ZM35.9183 0.863093V10.6211H34.6443V6.16909H29.6743V10.6211H28.4003V0.863093H29.6743V5.17509H34.6443V0.863093H35.9183ZM39.01 0.863093V10.6211H37.736V0.863093H39.01ZM42.1113 1.85709V5.20309H45.6673V6.18309H42.1113V9.61309H46.0873V10.6211H40.8373V0.849094H46.0873V1.85709H42.1113ZM52.809 10.6211L50.485 6.63109H48.945V10.6211H47.671V0.863093H50.821C51.5583 0.863093 52.179 0.989093 52.683 1.24109C53.1963 1.49309 53.579 1.83376 53.831 2.26309C54.083 2.69243 54.209 3.18243 54.209 3.73309C54.209 4.40509 54.013 4.99776 53.621 5.51109C53.2383 6.02443 52.6597 6.36509 51.885 6.53309L54.335 10.6211H52.809ZM48.945 5.60909H50.821C51.5117 5.60909 52.0297 5.44109 52.375 5.10509C52.7203 4.75976 52.893 4.30243 52.893 3.73309C52.893 3.14509 52.725 2.68776 52.389 2.36109C52.053 2.03443 51.5303 1.87109 50.821 1.87109H48.945V5.60909Z" fill="#888888"/>
</svg>
