<svg width="79" height="11" viewBox="0 0 79 11" fill="none" xmlns="http://www.w3.org/2000/svg">
<path d="M0.793681 5.114C0.793681 4.162 1.00835 3.308 1.43768 2.552C1.86701 1.78667 2.45035 1.18933 3.18768 0.76C3.93435 0.330666 4.76035 0.116 5.66568 0.116C6.72968 0.116 7.65835 0.372666 8.45168 0.886C9.24501 1.39933 9.82368 2.12733 10.1877 3.07H8.66168C8.39101 2.50067 7.99901 2.062 7.48568 1.754C6.98168 1.43667 6.37501 1.278 5.66568 1.278C4.98435 1.278 4.37301 1.43667 3.83168 1.754C3.29035 2.062 2.86568 2.51 2.55768 3.098C2.24968 3.67667 2.09568 4.34867 2.09568 5.114C2.09568 5.87933 2.24968 6.55133 2.55768 7.13C2.86568 7.70867 3.29035 8.15667 3.83168 8.474C4.37301 8.782 4.98435 8.936 5.66568 8.936C6.37501 8.936 6.98168 8.782 7.48568 8.474C7.99901 8.166 8.39101 7.72733 8.66168 7.158H10.1877C9.82368 8.09133 9.24501 8.81467 8.45168 9.328C7.65835 9.832 6.72968 10.084 5.66568 10.084C4.76035 10.084 3.93435 9.874 3.18768 9.454C2.45035 9.02467 1.86701 8.432 1.43768 7.676C1.00835 6.92 0.793681 6.066 0.793681 5.114ZM17.5081 7.83H13.2521L12.4681 10H11.1241L14.6521 0.298H16.1221L19.6361 10H18.2921L17.5081 7.83ZM17.1581 6.836L15.3801 1.866L13.6021 6.836H17.1581ZM23.9237 10.098C23.2797 10.098 22.7011 9.986 22.1877 9.762C21.6837 9.52867 21.2871 9.21133 20.9977 8.81C20.7084 8.39933 20.5591 7.928 20.5497 7.396H21.9077C21.9544 7.86267 22.1457 8.25933 22.4817 8.586C22.8177 8.90333 23.2984 9.062 23.9237 9.062C24.5211 9.062 24.9971 8.908 25.3517 8.6C25.7064 8.28267 25.8837 7.88133 25.8837 7.396C25.8837 7.02267 25.7811 6.71933 25.5757 6.486C25.3704 6.25267 25.1137 6.07533 24.8057 5.954C24.4977 5.83267 24.0824 5.702 23.5597 5.562C22.9157 5.394 22.3977 5.226 22.0057 5.058C21.6231 4.89 21.2917 4.62867 21.0117 4.274C20.7411 3.91 20.6057 3.42467 20.6057 2.818C20.6057 2.286 20.7411 1.81467 21.0117 1.404C21.2824 0.993333 21.6604 0.675999 22.1457 0.451999C22.6404 0.228 23.2051 0.116 23.8397 0.116C24.7544 0.116 25.5011 0.344666 26.0797 0.802C26.6677 1.25933 26.9991 1.866 27.0737 2.622H25.6737C25.6271 2.22067 25.4311 1.88 25.0857 1.6C24.7497 1.31067 24.2924 1.166 23.7137 1.166C23.1817 1.166 22.7477 1.306 22.4117 1.586C22.0757 1.866 21.9077 2.26267 21.9077 2.776C21.9077 3.13067 22.0057 3.42 22.2017 3.644C22.4071 3.868 22.6544 4.04067 22.9437 4.162C23.2424 4.274 23.6577 4.40467 24.1897 4.554C24.8337 4.73133 25.3517 4.90867 25.7437 5.086C26.1357 5.254 26.4717 5.52 26.7517 5.884C27.0317 6.23867 27.1717 6.724 27.1717 7.34C27.1717 7.816 27.0457 8.264 26.7937 8.684C26.5417 9.104 26.1684 9.44467 25.6737 9.706C25.1791 9.96733 24.5957 10.098 23.9237 10.098ZM29.9765 0.242V10H28.7025V0.242H29.9765ZM39.4758 10H38.2018L33.0778 2.23V10H31.8038V0.228H33.0778L38.2018 7.984V0.228H39.4758V10ZM45.7276 10.098C44.8223 10.098 43.9963 9.888 43.2496 9.468C42.5029 9.03867 41.9103 8.446 41.4716 7.69C41.0423 6.92467 40.8276 6.066 40.8276 5.114C40.8276 4.162 41.0423 3.308 41.4716 2.552C41.9103 1.78667 42.5029 1.194 43.2496 0.773999C43.9963 0.344666 44.8223 0.129999 45.7276 0.129999C46.6423 0.129999 47.4729 0.344666 48.2196 0.773999C48.9663 1.194 49.5543 1.782 49.9836 2.538C50.4129 3.294 50.6276 4.15267 50.6276 5.114C50.6276 6.07533 50.4129 6.934 49.9836 7.69C49.5543 8.446 48.9663 9.03867 48.2196 9.468C47.4729 9.888 46.6423 10.098 45.7276 10.098ZM45.7276 8.95C46.4089 8.95 47.0203 8.79133 47.5616 8.474C48.1123 8.15667 48.5416 7.70867 48.8496 7.13C49.1669 6.55133 49.3256 5.87933 49.3256 5.114C49.3256 4.34867 49.1669 3.67667 48.8496 3.098C48.5416 2.51 48.1123 2.062 47.5616 1.754C47.0203 1.43667 46.4089 1.278 45.7276 1.278C45.0463 1.278 44.4303 1.43667 43.8796 1.754C43.3383 2.062 42.9089 2.51 42.5916 3.098C42.2836 3.67667 42.1296 4.34867 42.1296 5.114C42.1296 5.87933 42.2836 6.55133 42.5916 7.13C42.9089 7.70867 43.3383 8.15667 43.8796 8.474C44.4303 8.79133 45.0463 8.95 45.7276 8.95ZM57.0654 9.02H60.4814V10H55.7914V0.242H57.0654V9.02ZM62.7643 0.242V10H61.4903V0.242H62.7643ZM65.1936 0.242L68.2316 8.628L71.2976 0.242H72.6556L68.9736 10H67.5036L63.8216 0.242H65.1936ZM74.9826 1.236V4.582H78.5386V5.562H74.9826V8.992H78.9586V10H73.7086V0.228H78.9586V1.236H74.9826Z" fill="#888888"/>
</svg>
