<svg width="24" height="17" viewBox="0 0 24 17" fill="none" xmlns="http://www.w3.org/2000/svg">
<path fill-rule="evenodd" clip-rule="evenodd" d="M23.3659 7.32994L22.0429 3.60962C21.4891 2.05215 20.1121 0.93705 18.4731 0.719186L14.5591 0.198641C13.0265 -0.00591813 11.4957 0.605265 10.5194 1.811L7.67306 5.32592C6.69683 6.53166 6.41744 8.15649 6.93549 9.61252L8.25847 13.3328C8.81227 14.8903 10.1893 16.0054 11.8283 16.2233L15.7423 16.7438C17.2749 16.9484 18.8057 16.3372 19.782 15.1315L22.6283 11.6165C23.6046 10.4108 23.884 8.78597 23.3659 7.32994ZM12.7845 13.9432C13.3766 13.8642 13.8797 14.102 13.908 14.4737C13.9371 14.8454 13.4805 15.2113 12.8885 15.2903C12.2964 15.3693 11.7933 15.1315 11.7651 14.7598C11.736 14.3881 12.1925 14.0222 12.7845 13.9432ZM10.699 5.73754C11.4017 5.6444 12.0345 6.41857 12.111 7.46797C12.1875 8.51738 11.6794 9.44372 10.9768 9.53685C10.2741 9.62998 9.64132 8.85582 9.56482 7.80641C9.48832 6.75701 9.99639 5.83067 10.699 5.73754ZM16.6196 12.4971C17.2117 12.4181 17.7148 12.656 17.743 13.0277C17.7721 13.3994 17.3156 13.7652 16.7236 13.8442C16.1315 13.9232 15.6284 13.6854 15.6001 13.3137C15.571 12.942 16.0276 12.5761 16.6196 12.4971ZM20.1187 11.2116C20.7108 11.1326 21.2139 11.3704 21.2422 11.7421C21.2713 12.1138 20.8147 12.4797 20.2227 12.5587C19.6306 12.6377 19.1275 12.3998 19.0993 12.0281C19.0702 11.6564 19.5267 11.2906 20.1187 11.2116ZM19.4909 5.72091C19.8227 5.31096 20.5877 5.37997 21.1989 5.87557C21.8101 6.37034 22.0371 7.10376 21.7053 7.51371C21.3735 7.92366 20.6085 7.85464 19.9973 7.35904C19.3862 6.86428 19.1591 6.13086 19.4909 5.72091ZM14.7761 1.90247C15.1079 1.49252 15.8729 1.56154 16.4841 2.05714C17.0953 2.5519 17.3223 3.28532 16.9905 3.69527C16.6587 4.10522 15.8937 4.0362 15.2825 3.54061C14.6713 3.04584 14.4443 2.31242 14.7761 1.90247ZM9.41008 1.03957L6.276 0.606339C4.96383 0.425894 3.64916 0.983027 2.86834 2.05322L1.00236 4.60855C0.27227 5.60889 0.117604 6.90693 0.59574 8.03283L1.9894 11.3158C2.46671 12.4417 3.5078 13.2325 4.73432 13.4021L7.13831 13.7339L5.88684 10.2738C5.19998 8.37293 5.55173 6.25916 6.81733 4.69669L9.73022 1.09861C9.62545 1.0745 9.51818 1.05454 9.41008 1.03957Z" fill="#888888"/>
</svg>
