<svg width="39" height="11" viewBox="0 0 39 11" fill="none" xmlns="http://www.w3.org/2000/svg">
<path d="M2.23837 0.863093V10.6211H0.964368V0.863093H2.23837ZM11.7377 10.6211H10.4637L5.33968 2.85109V10.6211H4.06568V0.849094H5.33968L10.4637 8.60509V0.849094H11.7377V10.6211ZM14.1674 0.863093L17.2054 9.24909L20.2714 0.863093H21.6294L17.9474 10.6211H16.4774L12.7954 0.863093H14.1674ZM23.9564 0.863093V10.6211H22.6824V0.863093H23.9564ZM31.7897 0.863093V1.85709H29.1297V10.6211H27.8557V1.85709H25.1817V0.863093H31.7897ZM34.2879 1.85709V5.20309H37.8439V6.18309H34.2879V9.61309H38.2639V10.6211H33.0139V0.849094H38.2639V1.85709H34.2879Z" fill="#888888"/>
</svg>
