<svg width="67" height="11" viewBox="0 0 67 11" fill="none" xmlns="http://www.w3.org/2000/svg">
<path d="M5.99188 0.241694V7.45169C5.99188 8.25436 5.74455 8.89836 5.24988 9.38369C4.75521 9.85969 4.10188 10.0977 3.28988 10.0977C2.46854 10.0977 1.81054 9.85503 1.31588 9.36969C0.821211 8.87503 0.573878 8.20303 0.573878 7.35369H1.84788C1.85721 7.82969 1.97854 8.21703 2.21188 8.51569C2.45454 8.81436 2.81388 8.96369 3.28988 8.96369C3.76588 8.96369 4.12054 8.82369 4.35388 8.54369C4.58721 8.25436 4.70388 7.89036 4.70388 7.45169V0.241694H5.99188ZM14.2697 7.82969H10.0137L9.22971 9.99969H7.88571L11.4137 0.297695H12.8837L16.3977 9.99969H15.0537L14.2697 7.82969ZM13.9197 6.83569L12.1417 1.86569L10.3637 6.83569H13.9197ZM17.4593 5.11369C17.4593 4.16169 17.674 3.30769 18.1033 2.55169C18.5326 1.78636 19.116 1.18903 19.8533 0.759694C20.6 0.330361 21.426 0.115694 22.3313 0.115694C23.3953 0.115694 24.324 0.372361 25.1173 0.885695C25.9106 1.39903 26.4893 2.12703 26.8533 3.06969H25.3273C25.0566 2.50036 24.6646 2.06169 24.1513 1.75369C23.6473 1.43636 23.0406 1.27769 22.3313 1.27769C21.65 1.27769 21.0386 1.43636 20.4973 1.75369C19.956 2.06169 19.5313 2.50969 19.2233 3.09769C18.9153 3.67636 18.7613 4.34836 18.7613 5.11369C18.7613 5.87903 18.9153 6.55103 19.2233 7.12969C19.5313 7.70836 19.956 8.15636 20.4973 8.47369C21.0386 8.78169 21.65 8.93569 22.3313 8.93569C23.0406 8.93569 23.6473 8.78169 24.1513 8.47369C24.6646 8.16569 25.0566 7.72703 25.3273 7.15769H26.8533C26.4893 8.09103 25.9106 8.81436 25.1173 9.32769C24.324 9.83169 23.3953 10.0837 22.3313 10.0837C21.426 10.0837 20.6 9.87369 19.8533 9.45369C19.116 9.02436 18.5326 8.43169 18.1033 7.67569C17.674 6.91969 17.4593 6.06569 17.4593 5.11369ZM34.0418 9.99969L30.0238 5.54769V9.99969H28.7498V0.241694H30.0238V4.76369L34.0558 0.241694H35.6658L31.2418 5.12769L35.7078 9.99969H34.0418ZM43.6546 3.09769C43.6546 3.90969 43.3746 4.58636 42.8146 5.12769C42.2639 5.65969 41.4193 5.92569 40.2806 5.92569H38.4046V9.99969H37.1306V0.241694H40.2806C41.3819 0.241694 42.2173 0.507694 42.7866 1.03969C43.3653 1.57169 43.6546 2.25769 43.6546 3.09769ZM40.2806 4.91769C40.9806 4.91769 41.4986 4.75903 41.8346 4.44169C42.1799 4.11503 42.3526 3.66703 42.3526 3.09769C42.3526 2.50969 42.1846 2.05703 41.8486 1.73969C41.5126 1.41303 40.9899 1.24969 40.2806 1.24969H38.4046V4.91769H40.2806ZM49.662 10.0977C48.7567 10.0977 47.9307 9.88769 47.184 9.46769C46.4374 9.03836 45.8447 8.44569 45.406 7.68969C44.9767 6.92436 44.762 6.06569 44.762 5.11369C44.762 4.16169 44.9767 3.30769 45.406 2.55169C45.8447 1.78636 46.4374 1.19369 47.184 0.773694C47.9307 0.344361 48.7567 0.129694 49.662 0.129694C50.5767 0.129694 51.4074 0.344361 52.154 0.773694C52.9007 1.19369 53.4887 1.78169 53.918 2.53769C54.3474 3.29369 54.562 4.15236 54.562 5.11369C54.562 6.07503 54.3474 6.93369 53.918 7.68969C53.4887 8.44569 52.9007 9.03836 52.154 9.46769C51.4074 9.88769 50.5767 10.0977 49.662 10.0977ZM49.662 8.94969C50.3434 8.94969 50.9547 8.79103 51.496 8.47369C52.0467 8.15636 52.476 7.70836 52.784 7.12969C53.1014 6.55103 53.26 5.87903 53.26 5.11369C53.26 4.34836 53.1014 3.67636 52.784 3.09769C52.476 2.50969 52.0467 2.06169 51.496 1.75369C50.9547 1.43636 50.3434 1.27769 49.662 1.27769C48.9807 1.27769 48.3647 1.43636 47.814 1.75369C47.2727 2.06169 46.8434 2.50969 46.526 3.09769C46.218 3.67636 46.064 4.34836 46.064 5.11369C46.064 5.87903 46.218 6.55103 46.526 7.12969C46.8434 7.70836 47.2727 8.15636 47.814 8.47369C48.3647 8.79103 48.9807 8.94969 49.662 8.94969ZM62.2499 0.241694V1.23569H59.5899V9.99969H58.3159V1.23569H55.6419V0.241694H62.2499ZM66.9121 10.0977C66.2681 10.0977 65.6894 9.98569 65.1761 9.76169C64.6721 9.52836 64.2754 9.21103 63.9861 8.80969C63.6968 8.39903 63.5474 7.92769 63.5381 7.39569H64.8961C64.9428 7.86236 65.1341 8.25903 65.4701 8.58569C65.8061 8.90303 66.2868 9.06169 66.9121 9.06169C67.5094 9.06169 67.9854 8.90769 68.3401 8.59969C68.6948 8.28236 68.8721 7.88103 68.8721 7.39569C68.8721 7.02236 68.7694 6.71903 68.5641 6.48569C68.3588 6.25236 68.1021 6.07503 67.7941 5.95369C67.4861 5.83236 67.0708 5.70169 66.5481 5.56169C65.9041 5.39369 65.3861 5.22569 64.9941 5.05769C64.6114 4.88969 64.2801 4.62836 64.0001 4.27369C63.7294 3.90969 63.5941 3.42436 63.5941 2.81769C63.5941 2.28569 63.7294 1.81436 64.0001 1.40369C64.2708 0.993028 64.6488 0.675694 65.1341 0.451694C65.6288 0.227694 66.1934 0.115694 66.8281 0.115694C67.7428 0.115694 68.4894 0.344361 69.0681 0.801695C69.6561 1.25903 69.9874 1.86569 70.0621 2.62169H68.6621C68.6154 2.22036 68.4194 1.87969 68.0741 1.59969C67.7381 1.31036 67.2808 1.16569 66.7021 1.16569C66.1701 1.16569 65.7361 1.30569 65.4001 1.58569C65.0641 1.86569 64.8961 2.26236 64.8961 2.77569C64.8961 3.13036 64.9941 3.41969 65.1901 3.64369C65.3954 3.86769 65.6428 4.04036 65.9321 4.16169C66.2308 4.27369 66.6461 4.40436 67.1781 4.55369C67.8221 4.73103 68.3401 4.90836 68.7321 5.08569C69.1241 5.25369 69.4601 5.51969 69.7401 5.88369C70.0201 6.23836 70.1601 6.72369 70.1601 7.33969C70.1601 7.81569 70.0341 8.26369 69.7821 8.68369C69.5301 9.10369 69.1568 9.44436 68.6621 9.70569C68.1674 9.96703 67.5841 10.0977 66.9121 10.0977Z" fill="#888888"/>
</svg>
