<svg width="31" height="25" viewBox="0 0 31 25" fill="none" xmlns="http://www.w3.org/2000/svg">
<path fill-rule="evenodd" clip-rule="evenodd" d="M13.3726 0.456726C16.5386 0.456726 19.4234 1.66326 21.5915 3.64995H19.3962C17.6816 2.48878 15.6042 1.81748 13.3726 1.81748C11.15 1.81748 9.0726 2.48878 7.35806 3.64995H5.16271C7.33084 1.66326 10.2066 0.456726 13.3726 0.456726ZM21.5915 21.5937C19.4234 23.5713 16.5386 24.7869 13.3726 24.7869C10.2066 24.7869 7.33084 23.5713 5.16271 21.5937H7.35806C9.0726 22.7549 11.15 23.4262 13.3726 23.4262C15.6042 23.4262 17.6816 22.7549 19.3962 21.5937H21.5915ZM4.1104 4.85648H22.6438C24.6305 4.85648 26.2543 6.47124 26.2543 8.45794V11.9142H27.1161C28.3318 11.9142 29.3206 12.9121 29.3206 14.1187V18.8178C29.3206 18.8813 29.3206 18.9357 29.3115 18.9992C30.01 19.2804 30.4999 19.9699 30.4999 20.7682C30.4999 21.8296 29.6471 22.6914 28.5858 22.6914C27.5244 22.6914 26.6716 21.8296 26.6716 20.7682C26.6716 19.9336 27.2069 19.2169 27.9598 18.9629V14.1822C27.9598 13.6923 27.5607 13.2931 27.0708 13.2931H26.2543V16.7857C26.2543 18.7633 24.6305 20.3872 22.6438 20.3872H4.1104C2.12371 20.3872 0.499878 18.7633 0.499878 16.7857V8.45794C0.499878 6.47124 2.12371 4.85648 4.1104 4.85648ZM4.21019 6.12652H22.544C23.8957 6.12652 24.9934 7.23326 24.9934 8.58494V16.6587C24.9934 18.0104 23.8957 19.1081 22.544 19.1081H4.21019C2.85851 19.1081 1.76084 18.0104 1.76084 16.6587V8.58494C1.76084 7.23326 2.85851 6.12652 4.21019 6.12652ZM4.68192 8.04064H7.86607C8.60995 8.04064 9.21775 8.64844 9.21775 9.40139V15.8423C9.21775 16.5861 8.60995 17.203 7.86607 17.203H4.68192C3.93804 17.203 3.33024 16.5861 3.33024 15.8423V9.40139C3.33024 8.64844 3.93804 8.04064 4.68192 8.04064ZM6.21503 10.7077C6.04267 10.744 5.98824 10.8347 5.92473 10.9799C5.8703 11.1069 5.81587 11.2429 5.77052 11.3699C5.7433 11.4334 5.62537 11.7237 5.60723 11.76C5.56187 11.8235 5.51651 11.8326 5.41672 11.8417L4.63656 11.8961C4.45512 11.9142 4.35534 11.9777 4.30091 12.1138C4.27369 12.1864 4.26462 12.268 4.29183 12.3497C4.32812 12.4767 4.44605 12.5583 4.54584 12.64L4.99942 13.021C5.04478 13.0663 5.09921 13.0936 5.12643 13.1661C5.1355 13.2296 5.09921 13.3476 5.09014 13.4111L4.98128 13.8465C4.94499 13.9826 4.87242 14.1731 4.92685 14.3182C4.99942 14.5087 5.22622 14.6176 5.46208 14.4724L6.15153 14.0461C6.2876 13.9644 6.26039 13.9554 6.32389 14.0007C6.55068 14.1459 6.77747 14.2729 7.00426 14.418C7.11312 14.4906 7.24013 14.5813 7.41249 14.5178C7.53042 14.4724 7.64835 14.3545 7.64835 14.1912C7.64835 14.1005 7.57578 13.8465 7.54856 13.7467C7.51228 13.5925 7.47599 13.4474 7.4397 13.3022C7.39434 13.1208 7.46692 13.0936 7.62114 12.9666C7.75721 12.8486 7.93864 12.6853 8.07472 12.5855C8.12008 12.5493 8.17451 12.4948 8.21079 12.4495C8.30151 12.3225 8.28337 12.141 8.20172 12.0322C8.09286 11.8961 7.94772 11.9052 7.7935 11.887C7.70278 11.887 7.07684 11.8417 7.02241 11.8235C6.9589 11.7963 6.93169 11.7419 6.90447 11.6693L6.57789 10.8801C6.52346 10.7712 6.38739 10.6714 6.21503 10.7077ZM11.785 8.04064H14.9692C15.7131 8.04064 16.3209 8.64844 16.3209 9.40139V15.8423C16.3209 16.5861 15.7131 17.203 14.9692 17.203H11.785C11.0412 17.203 10.4334 16.5861 10.4334 15.8423V9.40139C10.4334 8.64844 11.0412 8.04064 11.785 8.04064ZM13.3181 10.7077C13.1458 10.744 13.0914 10.8347 13.0278 10.9799C12.9734 11.1069 12.919 11.2429 12.8646 11.3699C12.8464 11.4334 12.7285 11.7237 12.7103 11.76C12.665 11.8235 12.6196 11.8326 12.5198 11.8417L11.7397 11.8961C11.5582 11.9142 11.4585 11.9777 11.404 12.1138C11.3768 12.1864 11.3677 12.268 11.3859 12.3497C11.4312 12.4767 11.5492 12.5583 11.649 12.64L12.1025 13.021C12.1479 13.0663 12.2023 13.0936 12.2295 13.1661C12.2386 13.2296 12.2023 13.3476 12.1933 13.4111L12.0844 13.8465C12.0481 13.9826 11.9755 14.1731 12.03 14.3182C12.1025 14.5087 12.3293 14.6176 12.5652 14.4724L13.2546 14.0461C13.3907 13.9644 13.3635 13.9554 13.427 14.0007C13.6538 14.1459 13.8806 14.2729 14.1074 14.418C14.2162 14.4906 14.3432 14.5813 14.5156 14.5178C14.6335 14.4724 14.7515 14.3545 14.7515 14.1912C14.7515 14.1005 14.6789 13.8465 14.6517 13.7467C14.6154 13.5925 14.5791 13.4474 14.5428 13.3022C14.4975 13.1208 14.57 13.0936 14.7243 12.9666C14.8603 12.8486 15.0418 12.6853 15.1778 12.5855C15.2232 12.5493 15.2776 12.4948 15.3139 12.4495C15.4046 12.3225 15.3865 12.141 15.3048 12.0322C15.196 11.8961 15.0508 11.9052 14.8966 11.887C14.8059 11.887 14.18 11.8417 14.1255 11.8235C14.062 11.7963 14.0348 11.7419 14.0076 11.6693L13.681 10.8801C13.6266 10.7712 13.4905 10.6714 13.3181 10.7077ZM18.8881 8.04064H22.0723C22.8162 8.04064 23.424 8.64844 23.424 9.40139V15.8423C23.424 16.5861 22.8162 17.203 22.0723 17.203H18.8881C18.1443 17.203 17.5365 16.5861 17.5365 15.8423V9.40139C17.5365 8.64844 18.1443 8.04064 18.8881 8.04064ZM20.4213 10.7077C20.2489 10.744 20.1945 10.8347 20.131 10.9799C20.0765 11.1069 20.0221 11.2429 19.9767 11.3699C19.9495 11.4334 19.8316 11.7237 19.8135 11.76C19.7681 11.8235 19.7227 11.8326 19.6229 11.8417L18.8428 11.8961C18.6614 11.9142 18.5616 11.9777 18.5071 12.1138C18.4799 12.1864 18.4708 12.268 18.4981 12.3497C18.5344 12.4767 18.6523 12.5583 18.7521 12.64L19.2057 13.021C19.251 13.0663 19.3054 13.0936 19.3327 13.1661C19.3417 13.2296 19.3054 13.3476 19.2964 13.4111L19.1875 13.8465C19.1512 13.9826 19.0787 14.1731 19.1331 14.3182C19.2057 14.5087 19.4324 14.6176 19.6683 14.4724L20.3578 14.0461C20.4938 13.9644 20.4666 13.9554 20.5301 14.0007C20.7569 14.1459 20.9837 14.2729 21.2105 14.418C21.3194 14.4906 21.4464 14.5813 21.6187 14.5178C21.7366 14.4724 21.8455 14.3545 21.8546 14.1912C21.8546 14.1005 21.782 13.8465 21.7548 13.7467C21.7185 13.5925 21.6822 13.4474 21.6459 13.3022C21.6006 13.1208 21.6731 13.0936 21.8274 12.9666C21.9634 12.8486 22.1449 12.6853 22.2809 12.5855C22.3263 12.5493 22.3807 12.4948 22.417 12.4495C22.5077 12.3225 22.4896 12.141 22.408 12.0322C22.2991 11.8961 22.1539 11.9052 21.9997 11.887C21.909 11.887 21.2831 11.8417 21.2286 11.8235C21.1651 11.7963 21.1379 11.7419 21.1107 11.6693L20.7841 10.8801C20.7297 10.7712 20.5936 10.6714 20.4213 10.7077Z" fill="#888888"/>
</svg>
