<svg width="21" height="26" viewBox="0 0 21 26" fill="none" xmlns="http://www.w3.org/2000/svg">
<path d="M19.4516 19.8372C18.847 18.9317 17.9287 18.431 17.0657 18.1056C16.6333 17.9429 16.2099 17.8229 15.8373 17.7207C15.4654 17.6196 15.1418 17.5343 14.9245 17.4524C14.5441 17.311 14.1424 17.1283 13.8622 16.9314C13.7222 16.8337 13.6143 16.733 13.5516 16.6472C13.4884 16.5598 13.4714 16.4992 13.4706 16.4461C13.4706 16.1434 13.4706 15.7806 13.4706 15.3239C14.0593 15.9576 15.2808 17.0072 16.67 16.6451C15.7774 15.7911 15.8799 12.7033 15.871 11.3762C16.0339 11.0571 16.1809 10.6551 16.3367 10.1099C16.4191 9.8216 16.4571 9.57077 16.4571 9.34719C16.4575 9.09001 16.4046 8.86643 16.3073 8.68518C16.2736 8.62151 16.2338 8.56555 16.1921 8.51482C17.039 7.29543 16.5581 0.27634 11.7267 0.224582C6.92619 -0.396414 3.93258 1.69309 4.75167 8.55476C4.75866 8.56106 4.76534 8.56946 4.77213 8.57575C4.74572 8.61286 4.7153 8.64328 4.69269 8.68523C4.59547 8.86648 4.54225 9.09006 4.54259 9.34724C4.54279 9.57082 4.58087 9.82165 4.66329 10.11C4.81881 10.6523 4.96403 11.0554 5.12692 11.3738C5.11798 12.6995 5.2212 15.7911 4.32814 16.6452C5.71891 17.0077 6.94142 15.9555 7.52941 15.3216C7.52941 15.7792 7.52941 16.1427 7.52941 16.4461C7.52941 16.4912 7.51154 16.556 7.44176 16.6487C7.33942 16.7862 7.12736 16.953 6.87545 17.0945C6.62428 17.2376 6.33541 17.3611 6.08258 17.4503C5.78571 17.5552 5.30758 17.6651 4.77174 17.8183C3.96666 18.0514 3.01495 18.3865 2.24069 19.0506C1.85407 19.3827 1.51466 19.7997 1.27604 20.3179C1.03707 20.8357 0.900062 21.4512 0.900452 22.1713C0.900452 22.3385 0.907777 22.511 0.923011 22.6898C0.933851 22.8154 0.98141 22.9169 1.03742 23.0005C1.14396 23.1576 1.28532 23.2738 1.46237 23.3931C1.77238 23.5982 2.20201 23.7989 2.75187 23.9956C4.39791 24.5827 7.12301 25.1201 10.4999 25.1208C13.2436 25.1208 15.5595 24.7647 17.2123 24.3175C18.0393 24.0932 18.6995 23.848 19.1766 23.6027C19.4155 23.4792 19.6089 23.3571 19.7619 23.2234C19.8387 23.1559 19.9059 23.0849 19.9626 23.0006C20.0182 22.9169 20.0661 22.8155 20.077 22.6898C20.0919 22.5117 20.0992 22.3392 20.0992 22.1727C20.1006 21.2126 19.854 20.439 19.4516 19.8372ZM4.01007 23.6048C4.00148 23.6027 3.99113 23.6003 3.98258 23.5978C3.19308 23.3843 2.57184 23.1499 2.16456 22.9397C1.96163 22.8354 1.81202 22.7364 1.72931 22.6633C1.69396 22.6325 1.67404 22.6091 1.66422 22.5954C1.6527 22.4484 1.64606 22.3064 1.64606 22.1713C1.64728 21.3347 1.85177 20.7238 2.16793 20.2445C2.61998 19.5601 3.33375 19.1311 4.08805 18.8337C4.12062 18.9891 4.1507 19.163 4.17521 19.3575C4.23121 19.7963 4.26461 20.3242 4.26461 20.8995C4.26461 21.7434 4.18644 22.6881 4.01007 23.6048ZM15.532 8.91477C15.5347 8.91653 15.538 8.91755 15.5406 8.91897C15.5833 8.9466 15.6179 8.97844 15.6498 9.03689C15.6813 9.09568 15.7113 9.18835 15.712 9.34724C15.712 9.4844 15.6877 9.66882 15.62 9.90564C15.4145 10.6296 15.2301 11.0505 15.061 11.2842C14.9764 11.4024 14.8989 11.4763 14.8128 11.5364C14.7318 11.5924 14.6375 11.6372 14.5192 11.6809C14.6963 10.9029 15.0723 9.46272 15.532 8.91477ZM6.50216 11.6897C6.37252 11.6435 6.2735 11.5963 6.18727 11.5365C6.05973 11.4462 5.9443 11.3238 5.80919 11.0722C5.67589 10.822 5.53453 10.448 5.38009 9.90564C5.31222 9.66877 5.2881 9.48435 5.2881 9.34724C5.2881 9.29724 5.2921 9.25525 5.29733 9.21745C5.82428 9.99626 6.29645 11.0624 6.56115 11.7111L6.50216 11.6897ZM10.4999 21.7875L6.6545 18.0276C6.95192 17.9044 7.263 17.749 7.53766 17.5584C7.72589 17.4268 7.8984 17.2792 8.03536 17.0993C8.17081 16.9219 8.27472 16.7001 8.27472 16.4461C8.27472 16.0507 8.27472 15.5567 8.27472 14.8789V14.7358L8.17902 14.6295C7.69723 14.0931 7.05885 13.3839 6.78947 12.1747L6.98278 7.7927L7.88654 6.2112C7.88654 6.2112 10.9363 9.37419 13.9859 9.14812L14.3464 11.744L14.2937 11.7629L14.2564 11.9763C14.0178 13.3122 13.3294 14.0634 12.8212 14.6295L12.7255 14.7359V14.879C12.7255 15.5567 12.7255 16.0508 12.7255 16.4461C12.7248 16.6921 12.8205 16.9129 12.9511 17.0892C13.1497 17.3551 13.4251 17.5521 13.7249 17.7242C13.9258 17.8383 14.1385 17.9342 14.3503 18.023L10.4999 21.7875ZM19.3355 22.5943L19.3034 22.6324C19.2485 22.6881 19.1376 22.7717 18.9817 22.8602C18.5813 23.0911 17.8943 23.3605 16.9896 23.6044C16.8132 22.6877 16.7351 21.743 16.7354 20.8994C16.7351 20.3242 16.7685 19.7962 16.8249 19.3575C16.8486 19.1675 16.878 18.9974 16.9095 18.8446C17.3999 19.0381 17.8778 19.2864 18.2716 19.6244C18.5894 19.8966 18.8554 20.2231 19.0464 20.6345C19.2367 21.046 19.3537 21.5457 19.3537 22.1726C19.3537 22.3067 19.347 22.448 19.3355 22.5943Z" fill="#888888"/>
<path d="M8.7962 17.3228V19.4407L10.5122 18.6738L12.2284 19.4407V17.3228L10.5122 18.0894L8.7962 17.3228Z" fill="#888888"/>
</svg>
