<svg width="53" height="11" viewBox="0 0 53 11" fill="none" xmlns="http://www.w3.org/2000/svg">
<path d="M3.75208 10.098C3.10808 10.098 2.52941 9.986 2.01608 9.762C1.51208 9.52867 1.11541 9.21133 0.826078 8.81C0.536745 8.39933 0.387411 7.928 0.378078 7.396H1.73608C1.78274 7.86267 1.97408 8.25933 2.31008 8.586C2.64608 8.90333 3.12674 9.062 3.75208 9.062C4.34941 9.062 4.82541 8.908 5.18008 8.6C5.53475 8.28267 5.71208 7.88133 5.71208 7.396C5.71208 7.02267 5.60941 6.71933 5.40408 6.486C5.19875 6.25267 4.94208 6.07533 4.63408 5.954C4.32608 5.83267 3.91074 5.702 3.38808 5.562C2.74408 5.394 2.22608 5.226 1.83408 5.058C1.45141 4.89 1.12008 4.62867 0.840078 4.274C0.569412 3.91 0.434078 3.42467 0.434078 2.818C0.434078 2.286 0.569412 1.81467 0.840078 1.404C1.11074 0.993333 1.48874 0.675999 1.97408 0.451999C2.46874 0.228 3.03341 0.116 3.66808 0.116C4.58275 0.116 5.32941 0.344666 5.90808 0.802C6.49608 1.25933 6.82741 1.866 6.90208 2.622H5.50208C5.45541 2.22067 5.25941 1.88 4.91408 1.6C4.57808 1.31067 4.12075 1.166 3.54208 1.166C3.01008 1.166 2.57608 1.306 2.24008 1.586C1.90408 1.866 1.73608 2.26267 1.73608 2.776C1.73608 3.13067 1.83408 3.42 2.03008 3.644C2.23541 3.868 2.48274 4.04067 2.77208 4.162C3.07075 4.274 3.48608 4.40467 4.01808 4.554C4.66208 4.73133 5.18008 4.90867 5.57208 5.086C5.96408 5.254 6.30008 5.52 6.58008 5.884C6.86008 6.23867 7.00008 6.724 7.00008 7.34C7.00008 7.816 6.87408 8.264 6.62208 8.684C6.37008 9.104 5.99674 9.44467 5.50208 9.706C5.00741 9.96733 4.42408 10.098 3.75208 10.098ZM10.1489 1.236V4.582H13.7049V5.562H10.1489V8.992H14.1249V10H8.87488V0.228H14.1249V1.236H10.1489ZM21.8206 7.83H17.5646L16.7806 10H15.4366L18.9646 0.298H20.4346L23.9486 10H22.6046L21.8206 7.83ZM21.4706 6.836L19.6926 1.866L17.9146 6.836H21.4706ZM30.6242 10L28.3002 6.01H26.7602V10H25.4862V0.242H28.6362C29.3735 0.242 29.9942 0.368 30.4982 0.62C31.0115 0.872 31.3942 1.21267 31.6462 1.642C31.8982 2.07133 32.0242 2.56133 32.0242 3.112C32.0242 3.784 31.8282 4.37667 31.4362 4.89C31.0535 5.40333 30.4749 5.744 29.7002 5.912L32.1502 10H30.6242ZM26.7602 4.988H28.6362C29.3269 4.988 29.8449 4.82 30.1902 4.484C30.5355 4.13867 30.7082 3.68133 30.7082 3.112C30.7082 2.524 30.5402 2.06667 30.2042 1.74C29.8682 1.41333 29.3455 1.25 28.6362 1.25H26.7602V4.988ZM33.5278 5.114C33.5278 4.162 33.7424 3.308 34.1718 2.552C34.6011 1.78667 35.1844 1.18933 35.9218 0.76C36.6684 0.330666 37.4944 0.116 38.3998 0.116C39.4638 0.116 40.3924 0.372666 41.1858 0.886C41.9791 1.39933 42.5578 2.12733 42.9218 3.07H41.3958C41.1251 2.50067 40.7331 2.062 40.2198 1.754C39.7158 1.43667 39.1091 1.278 38.3998 1.278C37.7184 1.278 37.1071 1.43667 36.5658 1.754C36.0244 2.062 35.5998 2.51 35.2918 3.098C34.9838 3.67667 34.8298 4.34867 34.8298 5.114C34.8298 5.87933 34.9838 6.55133 35.2918 7.13C35.5998 7.70867 36.0244 8.15667 36.5658 8.474C37.1071 8.782 37.7184 8.936 38.3998 8.936C39.1091 8.936 39.7158 8.782 40.2198 8.474C40.7331 8.166 41.1251 7.72733 41.3958 7.158H42.9218C42.5578 8.09133 41.9791 8.81467 41.1858 9.328C40.3924 9.832 39.4638 10.084 38.3998 10.084C37.4944 10.084 36.6684 9.874 35.9218 9.454C35.1844 9.02467 34.6011 8.432 34.1718 7.676C33.7424 6.92 33.5278 6.066 33.5278 5.114ZM52.3362 0.242V10H51.0622V5.548H46.0922V10H44.8182V0.242H46.0922V4.554H51.0622V0.242H52.3362Z" fill="#888888"/>
</svg>
