<svg width="26" height="24" viewBox="0 0 26 24" fill="none" xmlns="http://www.w3.org/2000/svg">
<path d="M22.7476 7.34788C23.0585 7.34788 23.3399 7.22192 23.5437 7.01812C23.7475 6.81431 23.8735 6.53291 23.8735 6.22198C23.8735 5.60018 23.3694 5.09637 22.7476 5.09637C22.1258 5.09637 21.6217 5.60047 21.6217 6.22198C21.6217 6.84379 22.1257 7.34788 22.7476 7.34788Z" fill="#888888"/>
<path d="M6.38768 19.1442C5.80539 19.1442 5.33356 19.6164 5.33356 20.1984C5.33356 20.7803 5.80569 21.2525 6.38768 21.2525C6.96968 21.2525 7.44181 20.7806 7.44181 20.1984C7.44181 19.6161 6.96998 19.1442 6.38768 19.1442Z" fill="#888888"/>
<path d="M22.2446 7.9577V17.041H23.2509V7.9577C23.0988 8.03435 22.9297 8.08153 22.7478 8.08153C22.5658 8.08153 22.3967 8.03405 22.2446 7.9577Z" fill="#888888"/>
<path d="M15.1011 19.1442C14.5188 19.1442 14.0469 19.6164 14.0469 20.1984C14.0469 20.7803 14.5188 21.2525 15.1011 21.2525C15.6834 21.2525 16.1552 20.7806 16.1552 20.1984C16.1551 19.6161 15.6833 19.1442 15.1011 19.1442Z" fill="#888888"/>
<path d="M20.2287 0.311218H1.08853C0.763335 0.311218 0.499878 0.574676 0.499878 0.899868V22.9258C0.499878 23.4781 0.947593 23.9258 1.49988 23.9258H19.8177C20.3699 23.9258 20.8177 23.4781 20.8177 22.9258V0.899868C20.8174 0.574676 20.5539 0.311218 20.2287 0.311218ZM14.2557 1.74687C14.7452 1.74687 15.1419 2.14354 15.1419 2.63308C15.1419 3.12262 14.7452 3.51929 14.2557 3.51929C13.7662 3.51929 13.3695 3.12262 13.3695 2.63308C13.3695 2.14354 13.7662 1.74687 14.2557 1.74687ZM10.7444 1.04835C11.6193 1.04835 12.3288 1.7578 12.3288 2.63272C12.3288 3.50765 11.6193 4.21709 10.7444 4.21709C9.86949 4.21709 9.16005 3.50765 9.16005 2.63272C9.16005 1.7578 9.86949 1.04835 10.7444 1.04835ZM7.23314 1.74687C7.72262 1.74687 8.11935 2.14354 8.11935 2.63308C8.11935 3.12262 7.72262 3.51929 7.23314 3.51929C6.74365 3.51929 6.34692 3.12262 6.34692 2.63308C6.34728 2.14354 6.74395 1.74687 7.23314 1.74687ZM6.38768 21.8651C5.46802 21.8651 4.72268 21.1197 4.72268 20.2001C4.72268 19.2804 5.46832 18.5351 6.38768 18.5351C7.30735 18.5351 8.05268 19.2807 8.05268 20.2001C8.05268 21.1194 7.30735 21.8651 6.38768 21.8651ZM10.7444 21.8651C9.82475 21.8651 9.07942 21.1197 9.07942 20.2001C9.07942 19.2804 9.82475 18.5351 10.7444 18.5351C11.6641 18.5351 12.4094 19.2807 12.4094 20.2001C12.4094 21.1194 11.6641 21.8651 10.7444 21.8651ZM15.1012 21.8651C14.1815 21.8651 13.4362 21.1197 13.4362 20.2001C13.4362 19.2804 14.1815 18.5351 15.1012 18.5351C16.0208 18.5351 16.7662 19.2807 16.7662 20.2001C16.7661 21.1194 16.0208 21.8651 15.1012 21.8651ZM19.5327 16.2796H2.95614C2.40386 16.2796 1.95614 15.8319 1.95614 15.2796V6.02475C1.95614 5.47247 2.40386 5.02475 2.95614 5.02475H18.5326C19.0849 5.02475 19.5326 5.47247 19.5326 6.02475V16.2796C19.5326 16.2796 19.5327 16.2796 19.5327 16.2796Z" fill="#888888"/>
<path d="M10.7444 19.1442C10.1621 19.1442 9.69025 19.6164 9.69025 20.1984C9.69025 20.7803 10.1624 21.2525 10.7444 21.2525C11.3267 21.2525 11.7985 20.7806 11.7985 20.1984C11.7985 19.6161 11.3267 19.1442 10.7444 19.1442Z" fill="#888888"/>
<path d="M23.1588 17.6403H21.4691V22.3231H23.1588C24.452 22.3231 25.5001 21.2748 25.5001 19.9818C25.5003 18.6887 24.452 17.6403 23.1588 17.6403Z" fill="#888888"/>
<path fill-rule="evenodd" clip-rule="evenodd" d="M8.66585 6.04169C8.48101 6.04169 8.33118 6.19152 8.33118 6.37636V14.9105C8.33118 15.0953 8.48101 15.2452 8.66585 15.2452H12.548C12.7329 15.2452 12.8827 15.0953 12.8827 14.9105V6.37636C12.8827 6.19152 12.7329 6.04169 12.548 6.04169H8.66585ZM9.3434 10.9367C9.35855 10.7989 9.44093 10.6772 9.56308 10.612C9.45135 10.5441 9.3898 10.4176 9.40306 10.2874L9.47597 9.49837C9.50059 9.28696 9.67861 9.12557 9.89261 9.12274H11.5971C11.6122 9.12274 11.6274 9.12274 11.6425 9.12463C11.8291 9.14445 11.9645 9.31244 11.9436 9.49837L11.8707 10.2874C11.8556 10.4252 11.7732 10.5469 11.651 10.612C11.7628 10.68 11.8253 10.8065 11.8111 10.9367L11.7382 11.7257C11.7135 11.9371 11.5355 12.0985 11.3215 12.1013H9.61706C9.60191 12.1013 9.58676 12.1013 9.57161 12.0994C9.38506 12.0796 9.24965 11.9116 9.27049 11.7257L9.3434 10.9367ZM10.2117 10.8527C10.1227 10.8508 10.0451 10.915 10.0309 11.0028L10.0015 11.318C10.0009 11.3218 10.0011 11.326 10.0013 11.3301L10.0015 11.3359C10.0072 11.4142 10.0763 11.4737 10.1549 11.468H10.903C10.992 11.4709 11.0696 11.4058 11.0838 11.318L11.1132 11.0028C11.1138 10.999 11.1136 10.9947 11.1134 10.9906L11.1132 10.9848C11.1075 10.9055 11.0384 10.847 10.9598 10.8527H10.2117ZM10.3149 9.73903C10.2259 9.73714 10.1483 9.80132 10.1341 9.88909L10.1047 10.2043C10.1041 10.2081 10.1043 10.2124 10.1045 10.2165L10.1047 10.2222C10.1104 10.3015 10.1795 10.36 10.2581 10.3544H11.0062C11.0952 10.3572 11.1728 10.2921 11.187 10.2043L11.2164 9.88909C11.217 9.88529 11.2168 9.88105 11.2166 9.87696V9.87696L11.2164 9.87116C11.2107 9.79188 11.1416 9.73337 11.063 9.73903H10.3149ZM10.4035 13.2899C10.5162 13.1923 10.6835 13.1923 10.7963 13.2899L11.7237 14.093C11.9336 14.2749 11.805 14.6198 11.5273 14.6198H9.67249C9.39473 14.6198 9.26613 14.2749 9.4761 14.093L10.4035 13.2899ZM10.7963 7.94973C10.6835 8.04736 10.5162 8.04736 10.4035 7.94973L9.4761 7.14659C9.26613 6.96475 9.39473 6.61981 9.67249 6.61981H11.5273C11.805 6.61981 11.9336 6.96475 11.7237 7.14659L10.7963 7.94973Z" fill="#888888"/>
<path fill-rule="evenodd" clip-rule="evenodd" d="M14.2882 6.04169C14.1033 6.04169 13.9535 6.19152 13.9535 6.37636V14.9105C13.9535 15.0953 14.1033 15.2452 14.2882 15.2452H18.1704C18.3552 15.2452 18.505 15.0953 18.505 14.9105V6.37636C18.505 6.19152 18.3552 6.04169 18.1704 6.04169H14.2882ZM14.9657 10.9367C14.9809 10.7989 15.0632 10.6772 15.1854 10.612C15.0737 10.5441 15.0121 10.4176 15.0254 10.2874L15.0983 9.49837C15.1229 9.28696 15.3009 9.12557 15.5149 9.12274H17.2194C17.2345 9.12274 17.2497 9.12274 17.2648 9.12463C17.4514 9.14445 17.5868 9.31244 17.5659 9.49837L17.493 10.2874C17.4779 10.4252 17.3955 10.5469 17.2733 10.612C17.3851 10.68 17.4476 10.8065 17.4334 10.9367L17.3605 11.7257C17.3358 11.9371 17.1578 12.0985 16.9438 12.1013H15.2394C15.2242 12.1013 15.2091 12.1013 15.1939 12.0994C15.0074 12.0796 14.872 11.9116 14.8928 11.7257L14.9657 10.9367ZM15.834 10.8527C15.745 10.8508 15.6674 10.915 15.6532 11.0028L15.6238 11.318C15.6232 11.3218 15.6234 11.326 15.6236 11.3301L15.6238 11.3359C15.6295 11.4142 15.6986 11.4737 15.7772 11.468H16.5253C16.6143 11.4709 16.6919 11.4058 16.7061 11.318L16.7355 11.0028C16.7361 10.999 16.7359 10.9947 16.7357 10.9906L16.7355 10.9848C16.7298 10.9055 16.6607 10.847 16.5821 10.8527H15.834ZM15.9373 9.73903C15.8482 9.73714 15.7706 9.80132 15.7564 9.88909L15.727 10.2043C15.7264 10.2081 15.7266 10.2124 15.7268 10.2165L15.727 10.2222C15.7327 10.3015 15.8018 10.36 15.8804 10.3544H16.6285C16.7175 10.3572 16.7952 10.2921 16.8094 10.2043L16.8387 9.88909C16.8394 9.88529 16.8391 9.88105 16.8389 9.87696V9.87696L16.8387 9.87116C16.833 9.79188 16.7639 9.73337 16.6853 9.73903H15.9373ZM16.1035 13.2899C16.2162 13.1923 16.3835 13.1923 16.4963 13.2899L17.4237 14.093C17.6336 14.2749 17.505 14.6198 17.2273 14.6198H15.3725C15.0947 14.6198 14.9661 14.2749 15.1761 14.093L16.1035 13.2899ZM16.4963 7.94973C16.3835 8.04736 16.2162 8.04736 16.1035 7.94973L15.1761 7.14659C14.9661 6.96475 15.0947 6.61981 15.3725 6.61981H17.2273C17.505 6.61981 17.6336 6.96475 17.4237 7.14659L16.4963 7.94973Z" fill="#888888"/>
<path fill-rule="evenodd" clip-rule="evenodd" d="M3.00984 6.04169C2.82501 6.04169 2.67517 6.19152 2.67517 6.37636V14.9105C2.67517 15.0953 2.82501 15.2452 3.00984 15.2452H6.89204C7.07687 15.2452 7.22671 15.0953 7.22671 14.9105V6.37636C7.22671 6.19152 7.07687 6.04169 6.89204 6.04169H3.00984ZM5.19627 13.2899C5.08354 13.1923 4.91621 13.1923 4.80348 13.2899L3.8761 14.093C3.66613 14.2749 3.79473 14.6198 4.07249 14.6198H5.92726C6.20503 14.6198 6.33363 14.2749 6.12366 14.093L5.19627 13.2899ZM4.80348 7.94973C4.91621 8.04736 5.08354 8.04736 5.19627 7.94973L6.12366 7.14659C6.33363 6.96475 6.20503 6.61981 5.92726 6.61981H4.07249C3.79473 6.61981 3.66613 6.96475 3.8761 7.14659L4.80348 7.94973ZM6.32042 9.78605L4.75759 9.79278C4.63187 9.82164 4.53854 9.93036 4.52902 10.0622C4.50711 10.269 4.50521 10.4537 4.50521 10.4537L6.22899 10.4431L6.18994 11.0714L4.47854 11.08L4.42616 12.1306L3.54523 12.1258L3.64808 9.91689C3.64808 9.91689 3.70522 9.21169 4.35855 9.16166L4.58426 9.1607L6.38994 9.15204L6.32042 9.78605Z" fill="#888888"/>
</svg>
