<svg width="40" height="11" viewBox="0 0 40 11" fill="none" xmlns="http://www.w3.org/2000/svg">
<path d="M3.64356 10.0977C2.99956 10.0977 2.42089 9.98569 1.90756 9.76169C1.40356 9.52836 1.00689 9.21103 0.717558 8.80969C0.428224 8.39903 0.278891 7.92769 0.269558 7.39569H1.62756C1.67422 7.86236 1.86556 8.25903 2.20156 8.58569C2.53756 8.90303 3.01822 9.06169 3.64356 9.06169C4.24089 9.06169 4.71689 8.90769 5.07156 8.59969C5.42622 8.28236 5.60356 7.88103 5.60356 7.39569C5.60356 7.02236 5.50089 6.71903 5.29556 6.48569C5.09022 6.25236 4.83356 6.07503 4.52556 5.95369C4.21756 5.83236 3.80222 5.70169 3.27956 5.56169C2.63556 5.39369 2.11756 5.22569 1.72556 5.05769C1.34289 4.88969 1.01156 4.62836 0.731558 4.27369C0.460891 3.90969 0.325558 3.42436 0.325558 2.81769C0.325558 2.28569 0.460891 1.81436 0.731558 1.40369C1.00222 0.993028 1.38022 0.675694 1.86556 0.451694C2.36022 0.227694 2.92489 0.115694 3.55956 0.115694C4.47422 0.115694 5.22089 0.344361 5.79956 0.801695C6.38756 1.25903 6.71889 1.86569 6.79356 2.62169H5.39356C5.34689 2.22036 5.15089 1.87969 4.80556 1.59969C4.46956 1.31036 4.01222 1.16569 3.43356 1.16569C2.90156 1.16569 2.46756 1.30569 2.13156 1.58569C1.79556 1.86569 1.62756 2.26236 1.62756 2.77569C1.62756 3.13036 1.72556 3.41969 1.92156 3.64369C2.12689 3.86769 2.37422 4.04036 2.66356 4.16169C2.96222 4.27369 3.37756 4.40436 3.90956 4.55369C4.55356 4.73103 5.07156 4.90836 5.46356 5.08569C5.85556 5.25369 6.19156 5.51969 6.47156 5.88369C6.75156 6.23836 6.89156 6.72369 6.89156 7.33969C6.89156 7.81569 6.76556 8.26369 6.51356 8.68369C6.26156 9.10369 5.88822 9.44436 5.39356 9.70569C4.89889 9.96703 4.31556 10.0977 3.64356 10.0977ZM10.0404 9.01969H13.4564V9.99969H8.76635V0.241694H10.0404V9.01969ZM19.2333 10.0977C18.328 10.0977 17.502 9.88769 16.7553 9.46769C16.0087 9.03836 15.416 8.44569 14.9773 7.68969C14.548 6.92436 14.3333 6.06569 14.3333 5.11369C14.3333 4.16169 14.548 3.30769 14.9773 2.55169C15.416 1.78636 16.0087 1.19369 16.7553 0.773694C17.502 0.344361 18.328 0.129694 19.2333 0.129694C20.148 0.129694 20.9787 0.344361 21.7253 0.773694C22.472 1.19369 23.06 1.78169 23.4893 2.53769C23.9187 3.29369 24.1333 4.15236 24.1333 5.11369C24.1333 6.07503 23.9187 6.93369 23.4893 7.68969C23.06 8.44569 22.472 9.03836 21.7253 9.46769C20.9787 9.88769 20.148 10.0977 19.2333 10.0977ZM19.2333 8.94969C19.9147 8.94969 20.526 8.79103 21.0673 8.47369C21.618 8.15636 22.0473 7.70836 22.3553 7.12969C22.6727 6.55103 22.8313 5.87903 22.8313 5.11369C22.8313 4.34836 22.6727 3.67636 22.3553 3.09769C22.0473 2.50969 21.618 2.06169 21.0673 1.75369C20.526 1.43636 19.9147 1.27769 19.2333 1.27769C18.552 1.27769 17.936 1.43636 17.3853 1.75369C16.844 2.06169 16.4147 2.50969 16.0973 3.09769C15.7893 3.67636 15.6353 4.34836 15.6353 5.11369C15.6353 5.87903 15.7893 6.55103 16.0973 7.12969C16.4147 7.70836 16.844 8.15636 17.3853 8.47369C17.936 8.79103 18.552 8.94969 19.2333 8.94969ZM31.8212 0.241694V1.23569H29.1612V9.99969H27.8872V1.23569H25.2132V0.241694H31.8212ZM36.4834 10.0977C35.8394 10.0977 35.2607 9.98569 34.7474 9.76169C34.2434 9.52836 33.8467 9.21103 33.5574 8.80969C33.2681 8.39903 33.1187 7.92769 33.1094 7.39569H34.4674C34.5141 7.86236 34.7054 8.25903 35.0414 8.58569C35.3774 8.90303 35.8581 9.06169 36.4834 9.06169C37.0807 9.06169 37.5567 8.90769 37.9114 8.59969C38.2661 8.28236 38.4434 7.88103 38.4434 7.39569C38.4434 7.02236 38.3407 6.71903 38.1354 6.48569C37.9301 6.25236 37.6734 6.07503 37.3654 5.95369C37.0574 5.83236 36.6421 5.70169 36.1194 5.56169C35.4754 5.39369 34.9574 5.22569 34.5654 5.05769C34.1827 4.88969 33.8514 4.62836 33.5714 4.27369C33.3007 3.90969 33.1654 3.42436 33.1654 2.81769C33.1654 2.28569 33.3007 1.81436 33.5714 1.40369C33.8421 0.993028 34.2201 0.675694 34.7054 0.451694C35.2001 0.227694 35.7647 0.115694 36.3994 0.115694C37.3141 0.115694 38.0607 0.344361 38.6394 0.801695C39.2274 1.25903 39.5587 1.86569 39.6334 2.62169H38.2334C38.1867 2.22036 37.9907 1.87969 37.6454 1.59969C37.3094 1.31036 36.8521 1.16569 36.2734 1.16569C35.7414 1.16569 35.3074 1.30569 34.9714 1.58569C34.6354 1.86569 34.4674 2.26236 34.4674 2.77569C34.4674 3.13036 34.5654 3.41969 34.7614 3.64369C34.9667 3.86769 35.2141 4.04036 35.5034 4.16169C35.8021 4.27369 36.2174 4.40436 36.7494 4.55369C37.3934 4.73103 37.9114 4.90836 38.3034 5.08569C38.6954 5.25369 39.0314 5.51969 39.3114 5.88369C39.5914 6.23836 39.7314 6.72369 39.7314 7.33969C39.7314 7.81569 39.6054 8.26369 39.3534 8.68369C39.1014 9.10369 38.7281 9.44436 38.2334 9.70569C37.7387 9.96703 37.1554 10.0977 36.4834 10.0977Z" fill="#888888"/>
</svg>
