<svg width="20" height="20" viewBox="0 0 20 20" fill="none" xmlns="http://www.w3.org/2000/svg">
<path fill-rule="evenodd" clip-rule="evenodd" d="M10.0004 19C9.96735 19 9.93435 18.9998 9.90137 18.9995C9.93421 18.9998 9.96708 19 10 19C10.0001 19 10.0003 19 10.0004 19ZM7.30717 18.5902C7.07343 18.517 6.84213 18.4339 6.61357 18.3411C6.60607 18.3381 6.59857 18.335 6.59108 18.332C6.825 18.4278 7.06386 18.514 7.30717 18.5902ZM3.70642 16.4336C3.6829 16.4105 3.65948 16.3874 3.63617 16.364C3.60934 16.3372 3.5827 16.3103 3.55625 16.2832C3.60572 16.3339 3.65578 16.384 3.70642 16.4336ZM1.74228 13.5849C1.71381 13.5192 1.68608 13.4531 1.6591 13.3866C1.22186 12.3086 1 11.169 1 10.0002C1.00003 11.2743 1.2648 12.4865 1.74228 13.5849ZM12.1054 18.7524C12.4816 18.6622 12.8486 18.5484 13.2047 18.4127C12.8444 18.5498 12.4776 18.6631 12.1054 18.7524ZM7.76824 1.27887C7.47018 1.35491 7.17808 1.44583 6.89276 1.55079C7.1807 1.44501 7.47272 1.35433 7.76824 1.27887ZM1.70444 6.50348C1.46361 7.07415 1.27995 7.67484 1.16064 8.29838C1.27074 7.72365 1.43718 7.16052 1.6591 6.61315C1.67399 6.57647 1.6891 6.53991 1.70444 6.50348ZM20 10C20 15.5228 15.5228 20 10 20C4.47715 20 0 15.5228 0 10C0 4.47715 4.47715 0 10 0C15.5228 0 20 4.47715 20 10ZM2.06277 12.8344C2.41645 13.2035 2.81589 13.5169 3.24941 13.789C3.28249 13.8099 3.31656 13.8288 3.35089 13.8462L4.92602 11.3764C4.92502 11.372 4.92428 11.3692 4.92353 11.3642C4.70267 10.2955 4.59174 9.21105 4.59697 8.11867V8.06768L2.56593 6.86586C2.51937 6.92535 2.47691 6.98769 2.43451 7.04992C2.41168 7.08343 2.38888 7.11691 2.36546 7.1499C2.14883 7.45533 1.95732 7.77419 1.78893 8.10623C1.43103 9.66845 1.52256 11.3142 2.06277 12.8344ZM10.3695 18.417C9.99913 18.2941 9.63874 18.1432 9.28829 17.9643C9.26044 17.9501 9.23382 17.9342 9.20771 17.9176L5.803 17.3109C7.20751 18.1168 8.79633 18.4854 10.3695 18.417ZM5.25806 16.6337L9.27586 17.3497C9.33803 17.2778 9.39773 17.2055 9.45394 17.1301C9.7922 16.6774 10.1232 16.2198 10.4506 15.7597L8.56427 12.4982C8.52963 12.4945 8.49008 12.4889 8.44424 12.4825C8.43446 12.4811 8.42441 12.4797 8.41405 12.4783C7.40524 12.3315 6.40341 12.1442 5.41898 11.8808C5.38754 11.8725 5.35877 11.8654 5.33221 11.8589C5.32157 11.8563 5.31129 11.8537 5.30134 11.8512L3.72769 14.3186C3.78277 14.439 3.85014 14.5536 3.91745 14.6681C3.94588 14.7164 3.9743 14.7648 4.00178 14.8135C4.36516 15.4589 4.78798 16.0628 5.25806 16.6337ZM14.9456 16.8262C15.3011 16.569 15.6406 16.2805 15.9604 15.9604C17.4413 14.4797 18.2546 12.5807 18.4003 10.6405C18.3586 10.6967 18.3046 10.7482 18.2397 10.7942C17.7432 11.1491 17.2085 11.4354 16.6541 11.6878L14.6415 15.4425C14.785 15.8935 14.8867 16.3551 14.9456 16.8262ZM16.094 11.5242C16.0199 11.3779 15.946 11.2337 15.8711 11.0909C15.4662 10.3164 15.0004 9.57966 14.5086 8.85837L10.4936 9.27075C10.2958 9.65502 10.0979 10.0395 9.89641 10.4216C9.59969 10.9847 9.30048 11.5475 8.99854 12.1082L10.9385 15.4627C12.0068 15.4577 13.0661 15.3532 14.1169 15.157C14.1271 15.1556 14.1369 15.1535 14.147 15.1512L14.15 15.1505L16.094 11.5242ZM14.5177 8.14617C14.7011 7.69515 14.8843 7.24446 15.0566 6.7895C15.1524 6.53486 15.2345 6.27473 15.3167 6.0145C15.3271 5.98166 15.3374 5.94882 15.3478 5.91599L12.6537 2.87934C12.2841 2.85323 11.9187 2.86492 11.5554 2.88531C11.0738 2.91316 10.5928 2.96328 10.1123 3.01335C10.0006 3.02499 9.88892 3.03662 9.77727 3.04798C9.70092 3.05618 9.62531 3.07285 9.55019 3.09275L8.4613 6.37115C8.58619 6.4962 8.71129 6.62103 8.83632 6.74578C8.89879 6.80812 8.96125 6.87044 9.02365 6.93276C9.02207 6.93453 9.02049 6.9362 9.0189 6.93787C9.01626 6.94065 9.01361 6.94342 9.01097 6.94669C9.13227 7.08294 9.25362 7.21909 9.37495 7.35522C9.71786 7.73996 10.0606 8.12455 10.4018 8.5109C10.4528 8.56885 10.5013 8.62954 10.5481 8.69123L14.4594 8.28954C14.4788 8.24174 14.4982 8.19396 14.5177 8.14617ZM17.686 6.53854C17.2791 5.63195 16.7036 4.78331 15.9604 4.03963C15.1431 3.22258 14.1975 2.60774 13.1887 2.1971C13.1847 2.32743 13.175 2.45676 13.1566 2.58585L15.8084 5.57474C15.9002 5.60633 15.9905 5.63841 16.0786 5.67473C16.6444 5.90703 17.1826 6.19207 17.686 6.53854ZM7.31104 2.04831C7.30827 2.04591 7.30506 2.04313 7.30103 2.04015C7.307 2.02946 7.31347 2.01926 7.31969 2.00956C6.12012 2.40976 4.99342 3.08653 4.04008 4.03963C3.93811 4.14161 3.83912 4.24607 3.74361 4.35153C3.59762 4.60746 3.4638 4.86937 3.34641 5.14047C3.21122 5.45253 3.09168 5.77182 2.97235 6.09054C2.9571 6.13128 2.94185 6.17201 2.92657 6.21271C2.90518 6.26942 2.89449 6.33309 2.8915 6.39577L4.89891 7.58342C5.67441 7.07379 6.49767 6.64872 7.34207 6.26494C7.47399 6.20491 7.6089 6.15157 7.74382 6.09822C7.8185 6.0687 7.89318 6.03917 7.96735 6.00851C7.97232 6.00627 7.9773 6.00478 7.98252 6.00329L8.99978 2.93978C8.47996 2.57391 7.92855 2.2655 7.32242 2.05607C7.31875 2.055 7.31546 2.05215 7.31104 2.04831Z" fill="#888888"/>
</svg>
