<svg width="49" height="11" viewBox="0 0 49 11" fill="none" xmlns="http://www.w3.org/2000/svg">
<path d="M3.71266 10.7191C3.06866 10.7191 2.49 10.6071 1.97666 10.3831C1.47266 10.1498 1.076 9.83243 0.786665 9.43109C0.497331 9.02043 0.347998 8.54909 0.338665 8.01709H1.69666C1.74333 8.48376 1.93466 8.88043 2.27066 9.20709C2.60666 9.52443 3.08733 9.68309 3.71266 9.68309C4.31 9.68309 4.786 9.52909 5.14066 9.22109C5.49533 8.90376 5.67266 8.50243 5.67266 8.01709C5.67266 7.64376 5.57 7.34043 5.36466 7.10709C5.15933 6.87376 4.90267 6.69643 4.59467 6.57509C4.28666 6.45376 3.87133 6.32309 3.34866 6.18309C2.70466 6.01509 2.18666 5.84709 1.79466 5.67909C1.412 5.51109 1.08066 5.24976 0.800665 4.89509C0.529998 4.53109 0.394665 4.04576 0.394665 3.43909C0.394665 2.90709 0.529998 2.43576 0.800665 2.02509C1.07133 1.61443 1.44933 1.29709 1.93466 1.07309C2.42933 0.849093 2.994 0.737093 3.62867 0.737093C4.54333 0.737093 5.29 0.96576 5.86866 1.42309C6.45667 1.88043 6.788 2.48709 6.86266 3.24309H5.46266C5.416 2.84176 5.22 2.50109 4.87466 2.22109C4.53866 1.93176 4.08133 1.78709 3.50266 1.78709C2.97066 1.78709 2.53666 1.92709 2.20066 2.20709C1.86466 2.48709 1.69666 2.88376 1.69666 3.39709C1.69666 3.75176 1.79466 4.04109 1.99066 4.26509C2.196 4.48909 2.44333 4.66176 2.73266 4.78309C3.03133 4.89509 3.44666 5.02576 3.97866 5.17509C4.62266 5.35243 5.14066 5.52976 5.53267 5.70709C5.92467 5.87509 6.26066 6.14109 6.54066 6.50509C6.82066 6.85976 6.96067 7.34509 6.96067 7.96109C6.96067 8.43709 6.83467 8.88509 6.58266 9.30509C6.33066 9.72509 5.95733 10.0658 5.46266 10.3271C4.968 10.5884 4.38466 10.7191 3.71266 10.7191ZM15.0155 3.71909C15.0155 4.53109 14.7355 5.20776 14.1755 5.74909C13.6248 6.28109 12.7801 6.54709 11.6415 6.54709H9.76546V10.6211H8.49146V0.863093H11.6415C12.7428 0.863093 13.5781 1.12909 14.1475 1.66109C14.7261 2.19309 15.0155 2.87909 15.0155 3.71909ZM11.6415 5.53909C12.3415 5.53909 12.8595 5.38043 13.1955 5.06309C13.5408 4.73643 13.7135 4.28843 13.7135 3.71909C13.7135 3.13109 13.5455 2.67843 13.2095 2.36109C12.8735 2.03443 12.3508 1.87109 11.6415 1.87109H9.76546V5.53909H11.6415ZM20.6789 10.7191C19.7736 10.7191 18.9476 10.5091 18.2009 10.0891C17.4542 9.65976 16.8616 9.06709 16.4229 8.31109C15.9936 7.54576 15.7789 6.68709 15.7789 5.73509C15.7789 4.78309 15.9936 3.92909 16.4229 3.17309C16.8616 2.40776 17.4542 1.81509 18.2009 1.39509C18.9476 0.96576 19.7736 0.751093 20.6789 0.751093C21.5936 0.751093 22.4242 0.96576 23.1709 1.39509C23.9176 1.81509 24.5056 2.40309 24.9349 3.15909C25.3642 3.91509 25.5789 4.77376 25.5789 5.73509C25.5789 6.69643 25.3642 7.55509 24.9349 8.31109C24.5056 9.06709 23.9176 9.65976 23.1709 10.0891C22.4242 10.5091 21.5936 10.7191 20.6789 10.7191ZM20.6789 9.57109C21.3602 9.57109 21.9716 9.41243 22.5129 9.09509C23.0636 8.77776 23.4929 8.32976 23.8009 7.75109C24.1182 7.17243 24.2769 6.50043 24.2769 5.73509C24.2769 4.96976 24.1182 4.29776 23.8009 3.71909C23.4929 3.13109 23.0636 2.68309 22.5129 2.37509C21.9716 2.05776 21.3602 1.89909 20.6789 1.89909C19.9976 1.89909 19.3816 2.05776 18.8309 2.37509C18.2896 2.68309 17.8602 3.13109 17.5429 3.71909C17.2349 4.29776 17.0809 4.96976 17.0809 5.73509C17.0809 6.50043 17.2349 7.17243 17.5429 7.75109C17.8602 8.32976 18.2896 8.77776 18.8309 9.09509C19.3816 9.41243 19.9976 9.57109 20.6789 9.57109ZM32.0547 10.6211L29.7307 6.63109H28.1907V10.6211H26.9167V0.863093H30.0667C30.8041 0.863093 31.4247 0.989093 31.9287 1.24109C32.4421 1.49309 32.8247 1.83376 33.0767 2.26309C33.3287 2.69243 33.4547 3.18243 33.4547 3.73309C33.4547 4.40509 33.2587 4.99776 32.8667 5.51109C32.4841 6.02443 31.9054 6.36509 31.1307 6.53309L33.5807 10.6211H32.0547ZM28.1907 5.60909H30.0667C30.7574 5.60909 31.2754 5.44109 31.6207 5.10509C31.9661 4.75976 32.1387 4.30243 32.1387 3.73309C32.1387 3.14509 31.9707 2.68776 31.6347 2.36109C31.2987 2.03443 30.7761 1.87109 30.0667 1.87109H28.1907V5.60909ZM41.0963 0.863093V1.85709H38.4363V10.6211H37.1623V1.85709H34.4883V0.863093H41.0963ZM45.4145 10.7191C44.7705 10.7191 44.1919 10.6071 43.6785 10.3831C43.1745 10.1498 42.7779 9.83243 42.4885 9.43109C42.1992 9.02043 42.0499 8.54909 42.0405 8.01709H43.3985C43.4452 8.48376 43.6365 8.88043 43.9725 9.20709C44.3085 9.52443 44.7892 9.68309 45.4145 9.68309C46.0119 9.68309 46.4879 9.52909 46.8425 9.22109C47.1972 8.90376 47.3745 8.50243 47.3745 8.01709C47.3745 7.64376 47.2719 7.34043 47.0665 7.10709C46.8612 6.87376 46.6045 6.69643 46.2965 6.57509C45.9885 6.45376 45.5732 6.32309 45.0505 6.18309C44.4065 6.01509 43.8885 5.84709 43.4965 5.67909C43.1139 5.51109 42.7825 5.24976 42.5025 4.89509C42.2319 4.53109 42.0965 4.04576 42.0965 3.43909C42.0965 2.90709 42.2319 2.43576 42.5025 2.02509C42.7732 1.61443 43.1512 1.29709 43.6365 1.07309C44.1312 0.849093 44.6959 0.737093 45.3305 0.737093C46.2452 0.737093 46.9919 0.96576 47.5705 1.42309C48.1585 1.88043 48.4899 2.48709 48.5645 3.24309H47.1645C47.1179 2.84176 46.9219 2.50109 46.5765 2.22109C46.2405 1.93176 45.7832 1.78709 45.2045 1.78709C44.6725 1.78709 44.2385 1.92709 43.9025 2.20709C43.5665 2.48709 43.3985 2.88376 43.3985 3.39709C43.3985 3.75176 43.4965 4.04109 43.6925 4.26509C43.8979 4.48909 44.1452 4.66176 44.4345 4.78309C44.7332 4.89509 45.1485 5.02576 45.6805 5.17509C46.3245 5.35243 46.8425 5.52976 47.2345 5.70709C47.6265 5.87509 47.9625 6.14109 48.2425 6.50509C48.5225 6.85976 48.6625 7.34509 48.6625 7.96109C48.6625 8.43709 48.5365 8.88509 48.2845 9.30509C48.0325 9.72509 47.6592 10.0658 47.1645 10.3271C46.6699 10.5884 46.0865 10.7191 45.4145 10.7191Z" fill="#888888"/>
</svg>
