<svg width="26" height="26" viewBox="0 0 26 26" fill="none" xmlns="http://www.w3.org/2000/svg">
<g clip-path="url(#clip0_1_304)">
<path d="M14.5405 24.872C18.4479 24.0887 23.5 21.2779 23.5 14.0094C23.5 7.39486 18.6584 2.99027 15.1769 0.966424C14.4044 0.517324 13.5 1.10794 13.5 2.00151V4.28711C13.5 6.08944 12.7423 9.37925 10.6367 10.7476C9.56165 11.4462 8.40065 10.4006 8.27 9.12521L8.16271 8.07791C8.038 6.8604 6.79801 6.1213 5.82495 6.86361C4.07684 8.19716 2.25 10.5324 2.25 14.0094C2.25 22.8982 8.86111 25.1205 12.1666 25.1205C12.3589 25.1205 12.561 25.1147 12.7714 25.1026C11.1391 24.9631 8.5 23.9504 8.5 20.6756C8.5 18.114 10.3688 16.381 11.7887 15.5386C12.1706 15.312 12.6176 15.6062 12.6176 16.0502V16.7867C12.6176 17.3504 12.8356 18.2315 13.3545 18.8346C13.9418 19.5171 14.8036 18.8021 14.8731 17.9045C14.8951 17.6214 15.1799 17.4409 15.4251 17.5842C16.2268 18.0527 17.25 19.0535 17.25 20.6756C17.25 23.2356 15.8388 24.4132 14.5405 24.872Z" fill="#888888"/>
</g>
<defs>
<clipPath id="clip0_1_304">
<rect width="25" height="25" fill="white" transform="translate(0.5 0.621094)"/>
</clipPath>
</defs>
</svg>
