<svg width="40" height="11" viewBox="0 0 40 11" fill="none" xmlns="http://www.w3.org/2000/svg">
<path d="M3.0138 10.098C2.3698 10.098 1.79113 9.986 1.2778 9.762C0.773797 9.52867 0.37713 9.21133 0.0877969 8.81C-0.201536 8.39933 -0.35087 7.928 -0.360203 7.396H0.997797C1.04446 7.86267 1.2358 8.25933 1.5718 8.586C1.9078 8.90333 2.38846 9.062 3.0138 9.062C3.61113 9.062 4.08713 8.908 4.4418 8.6C4.79646 8.28267 4.9738 7.88133 4.9738 7.396C4.9738 7.02267 4.87113 6.71933 4.6658 6.486C4.46046 6.25267 4.2038 6.07533 3.8958 5.954C3.5878 5.83267 3.17246 5.702 2.6498 5.562C2.0058 5.394 1.4878 5.226 1.0958 5.058C0.71313 4.89 0.381797 4.62867 0.101797 4.274C-0.16887 3.91 -0.304203 3.42467 -0.304203 2.818C-0.304203 2.286 -0.16887 1.81467 0.101797 1.404C0.372464 0.993333 0.750464 0.675999 1.2358 0.451999C1.73046 0.228 2.29513 0.116 2.9298 0.116C3.84446 0.116 4.59113 0.344666 5.1698 0.802C5.7578 1.25933 6.08913 1.866 6.1638 2.622H4.7638C4.71713 2.22067 4.52113 1.88 4.1758 1.6C3.8398 1.31067 3.38246 1.166 2.8038 1.166C2.2718 1.166 1.8378 1.306 1.5018 1.586C1.1658 1.866 0.997797 2.26267 0.997797 2.776C0.997797 3.13067 1.0958 3.42 1.2918 3.644C1.49713 3.868 1.74446 4.04067 2.0338 4.162C2.33246 4.274 2.7478 4.40467 3.2798 4.554C3.9238 4.73133 4.4418 4.90867 4.8338 5.086C5.2258 5.254 5.5618 5.52 5.8418 5.884C6.1218 6.23867 6.2618 6.724 6.2618 7.34C6.2618 7.816 6.1358 8.264 5.8838 8.684C5.6318 9.104 5.25846 9.44467 4.7638 9.706C4.26913 9.96733 3.6858 10.098 3.0138 10.098ZM14.1426 0.242V1.236H11.4826V10H10.2086V1.236H7.53459V0.242H14.1426ZM21.4788 7.83H17.2228L16.4388 10H15.0948L18.6228 0.298H20.0928L23.6068 10H22.2628L21.4788 7.83ZM21.1288 6.836L19.3508 1.866L17.5728 6.836H21.1288ZM30.2824 10L27.9584 6.01H26.4184V10H25.1444V0.242H28.2944C29.0317 0.242 29.6524 0.368 30.1564 0.62C30.6697 0.872 31.0524 1.21267 31.3044 1.642C31.5564 2.07133 31.6824 2.56133 31.6824 3.112C31.6824 3.784 31.4864 4.37667 31.0944 4.89C30.7117 5.40333 30.1331 5.744 29.3584 5.912L31.8084 10H30.2824ZM26.4184 4.988H28.2944C28.9851 4.988 29.5031 4.82 29.8484 4.484C30.1937 4.13867 30.3664 3.68133 30.3664 3.112C30.3664 2.524 30.1984 2.06667 29.8624 1.74C29.5264 1.41333 29.0037 1.25 28.2944 1.25H26.4184V4.988ZM39.668 0.242V1.236H37.008V10H35.734V1.236H33.06V0.242H39.668Z" fill="#888888"/>
</svg>
