<svg width="68" height="11" viewBox="0 0 68 11" fill="none" xmlns="http://www.w3.org/2000/svg">
<path d="M6.02664 0.242V1.236H1.78464V4.582H5.22864V5.576H1.78464V10H0.51064V0.242H6.02664ZM12.9893 7.83H8.73333L7.94933 10H6.60533L10.1333 0.298H11.6033L15.1173 10H13.7733L12.9893 7.83ZM12.6393 6.836L10.8613 1.866L9.08333 6.836H12.6393ZM16.9129 0.242L19.9509 8.628L23.0169 0.242H24.3749L20.6929 10H19.2229L15.5409 0.242H16.9129ZM29.8519 10.098C28.9465 10.098 28.1205 9.888 27.3739 9.468C26.6272 9.03867 26.0345 8.446 25.5959 7.69C25.1665 6.92467 24.9519 6.066 24.9519 5.114C24.9519 4.162 25.1665 3.308 25.5959 2.552C26.0345 1.78667 26.6272 1.194 27.3739 0.773999C28.1205 0.344666 28.9465 0.129999 29.8519 0.129999C30.7665 0.129999 31.5972 0.344666 32.3439 0.773999C33.0905 1.194 33.6785 1.782 34.1079 2.538C34.5372 3.294 34.7519 4.15267 34.7519 5.114C34.7519 6.07533 34.5372 6.934 34.1079 7.69C33.6785 8.446 33.0905 9.03867 32.3439 9.468C31.5972 9.888 30.7665 10.098 29.8519 10.098ZM29.8519 8.95C30.5332 8.95 31.1445 8.79133 31.6859 8.474C32.2365 8.15667 32.6659 7.70867 32.9739 7.13C33.2912 6.55133 33.4499 5.87933 33.4499 5.114C33.4499 4.34867 33.2912 3.67667 32.9739 3.098C32.6659 2.51 32.2365 2.062 31.6859 1.754C31.1445 1.43667 30.5332 1.278 29.8519 1.278C29.1705 1.278 28.5545 1.43667 28.0039 1.754C27.4625 2.062 27.0332 2.51 26.7159 3.098C26.4079 3.67667 26.2539 4.34867 26.2539 5.114C26.2539 5.87933 26.4079 6.55133 26.7159 7.13C27.0332 7.70867 27.4625 8.15667 28.0039 8.474C28.5545 8.79133 29.1705 8.95 29.8519 8.95ZM41.2277 10L38.9037 6.01H37.3637V10H36.0897V0.242H39.2397C39.9771 0.242 40.5977 0.368 41.1017 0.62C41.6151 0.872 41.9977 1.21267 42.2497 1.642C42.5017 2.07133 42.6277 2.56133 42.6277 3.112C42.6277 3.784 42.4317 4.37667 42.0397 4.89C41.6571 5.40333 41.0784 5.744 40.3037 5.912L42.7537 10H41.2277ZM37.3637 4.988H39.2397C39.9304 4.988 40.4484 4.82 40.7937 4.484C41.1391 4.13867 41.3117 3.68133 41.3117 3.112C41.3117 2.524 41.1437 2.06667 40.8077 1.74C40.4717 1.41333 39.9491 1.25 39.2397 1.25H37.3637V4.988ZM45.5373 0.242V10H44.2633V0.242H45.5373ZM53.3706 0.242V1.236H50.7106V10H49.4366V1.236H46.7626V0.242H53.3706ZM55.8688 1.236V4.582H59.4248V5.562H55.8688V8.992H59.8448V10H54.5948V0.228H59.8448V1.236H55.8688ZM64.5226 10.098C63.8786 10.098 63.2999 9.986 62.7866 9.762C62.2826 9.52867 61.8859 9.21133 61.5966 8.81C61.3072 8.39933 61.1579 7.928 61.1486 7.396H62.5066C62.5532 7.86267 62.7446 8.25933 63.0806 8.586C63.4166 8.90333 63.8972 9.062 64.5226 9.062C65.1199 9.062 65.5959 8.908 65.9506 8.6C66.3052 8.28267 66.4826 7.88133 66.4826 7.396C66.4826 7.02267 66.3799 6.71933 66.1746 6.486C65.9692 6.25267 65.7126 6.07533 65.4046 5.954C65.0966 5.83267 64.6812 5.702 64.1586 5.562C63.5146 5.394 62.9966 5.226 62.6046 5.058C62.2219 4.89 61.8906 4.62867 61.6106 4.274C61.3399 3.91 61.2046 3.42467 61.2046 2.818C61.2046 2.286 61.3399 1.81467 61.6106 1.404C61.8812 0.993333 62.2592 0.675999 62.7446 0.451999C63.2392 0.228 63.8039 0.116 64.4386 0.116C65.3532 0.116 66.0999 0.344666 66.6786 0.802C67.2666 1.25933 67.5979 1.866 67.6726 2.622H66.2726C66.2259 2.22067 66.0299 1.88 65.6846 1.6C65.3486 1.31067 64.8912 1.166 64.3126 1.166C63.7806 1.166 63.3466 1.306 63.0106 1.586C62.6746 1.866 62.5066 2.26267 62.5066 2.776C62.5066 3.13067 62.6046 3.42 62.8006 3.644C63.0059 3.868 63.2532 4.04067 63.5426 4.162C63.8412 4.274 64.2566 4.40467 64.7886 4.554C65.4326 4.73133 65.9506 4.90867 66.3426 5.086C66.7346 5.254 67.0706 5.52 67.3506 5.884C67.6306 6.23867 67.7706 6.724 67.7706 7.34C67.7706 7.816 67.6446 8.264 67.3926 8.684C67.1406 9.104 66.7672 9.44467 66.2726 9.706C65.7779 9.96733 65.1946 10.098 64.5226 10.098Z" fill="#888888"/>
</svg>
