<svg width="17" height="15" viewBox="0 0 17 15" fill="none" xmlns="http://www.w3.org/2000/svg">
<g clip-path="url(#clip0_1_99)">
<g clip-path="url(#clip1_1_99)">
<g clip-path="url(#clip2_1_99)">
<path d="M15.2784 5.60319C15.624 5.65754 15.7968 5.79643 15.7968 6.01986C15.7968 6.15271 15.7166 6.29764 15.5561 6.45464L12.1962 9.66116L12.9922 14.1901C12.9984 14.2324 13.0015 14.2928 13.0015 14.3713C13.0015 14.4981 12.9691 14.6053 12.9043 14.6928C12.8395 14.7804 12.7454 14.8242 12.622 14.8242C12.5048 14.8242 12.3814 14.788 12.2518 14.7155L8.0959 12.5778L3.94001 14.7155C3.80426 14.788 3.68085 14.8242 3.56978 14.8242C3.4402 14.8242 3.34301 14.7804 3.27822 14.6928C3.21343 14.6053 3.18103 14.4981 3.18103 14.3713C3.18103 14.3351 3.1872 14.2747 3.19955 14.1901L3.99555 9.66116L0.626416 6.45464C0.472152 6.2916 0.39502 6.14667 0.39502 6.01986C0.39502 5.79643 0.567796 5.65754 0.913348 5.60319L5.55979 4.94196L7.64236 0.820595C7.7596 0.573011 7.91078 0.449219 8.0959 0.449219C8.28101 0.449219 8.43219 0.573011 8.54943 0.820595L10.632 4.94196L15.2784 5.60319Z" fill="#FFD703"/>
</g>
</g>
</g>
<defs>
<clipPath id="clip0_1_99">
<rect width="15.4018" height="14.375" fill="white" transform="translate(0.730957 0.445312)"/>
</clipPath>
<clipPath id="clip1_1_99">
<rect width="15.4018" height="14.375" fill="white" transform="translate(0.730957 0.445312)"/>
</clipPath>
<clipPath id="clip2_1_99">
<rect width="15.4018" height="14.375" fill="white" transform="translate(0.730957 0.445312)"/>
</clipPath>
</defs>
</svg>
