<svg width="17" height="15" viewBox="0 0 17 15" fill="none" xmlns="http://www.w3.org/2000/svg">
<g clip-path="url(#clip0_1_113)">
<g clip-path="url(#clip1_1_113)">
<path d="M11.9213 13.0669L11.2549 9.25355L14.0872 6.56334L10.1812 6.00174L8.43185 2.54161L6.68249 6.00174L2.77651 6.56334L5.60881 9.25355L4.93313 13.0669L8.43185 11.2644L11.9213 13.0669ZM15.6144 5.60319C15.96 5.65754 16.1327 5.79643 16.1327 6.01986C16.1327 6.15271 16.0525 6.29764 15.8921 6.45464L12.5322 9.66116L13.3282 14.1901C13.3344 14.2324 13.3375 14.2928 13.3375 14.3713C13.3375 14.6732 13.211 14.8242 12.958 14.8242C12.8407 14.8242 12.7173 14.788 12.5877 14.7155L8.43185 12.5778L4.27596 14.7155C4.14021 14.788 4.01679 14.8242 3.90572 14.8242C3.77614 14.8242 3.67896 14.7804 3.61416 14.6928C3.54937 14.6053 3.51698 14.4981 3.51698 14.3713C3.51698 14.3351 3.52315 14.2747 3.53549 14.1901L4.33149 9.66116L0.962354 6.45464C0.808089 6.2916 0.730957 6.14667 0.730957 6.01986C0.730957 5.79643 0.903733 5.65754 1.24929 5.60319L5.89574 4.94196L7.97831 0.820595C8.09555 0.573011 8.24673 0.449219 8.43185 0.449219C8.61697 0.449219 8.76815 0.573011 8.88539 0.820595L10.968 4.94196L15.6144 5.60319Z" fill="white"/>
</g>
</g>
<defs>
<clipPath id="clip0_1_113">
<rect width="15.4018" height="14.375" fill="white" transform="translate(0.730957 0.445312)"/>
</clipPath>
<clipPath id="clip1_1_113">
<rect width="15.4018" height="14.375" fill="white" transform="translate(0.730957 0.445312)"/>
</clipPath>
</defs>
</svg>
